<?xml version="1.0" encoding="UTF-8"?>
<svg xmlns="http://www.w3.org/2000/svg" height="862" width="862" viewBox="0 0 862 862">
    <ellipse fill="#FCE6D0" ry="312.19989" rx="308.51151" cy="519.10388" cx="422.4411"/>
    <path fill="#FCE6D0" d="m 507.8,809.3818 -45.2362,16.957 -20.167,32.0478 -41.7342,0.255 -28.9307,-34.1549 -19.367,-10.0958 c 77.4873,-5.7757 78.5618,-4.46 155.435,-5.0091 z"/>
    <path fill="#060504" d="m 629.6867,405.2651 c 0,-1.7754 0.6645,-6.021 1.4766,-9.435 1.6064,-6.7525 17.6987,-44.65 23.3,-54.8716 3.5447,-6.4685 8.8373,-13.431 9.5404,-12.5506 0.8166,1.0227 12.4728,41.2947 12.4728,43.0934 0,1.0461 -46.8924,36.9917 -48.2034,36.9917 -0.2378,0 1.4136,-1.4525 1.4136,-3.2279 z M 221.4122,365.974 c -11.6218,-4.1947 -25.9102,-5.7277 -46.764,-5.5346 l -19.762,0.1831 0.3025,-7.2846 c 0.6572,-15.8238 2.6951,-21.6956 8.7142,-25.107 10.1238,-5.738 30.9603,0.2823 45.6667,13.892 6.0438,5.593 17.4294,19.8842 19.2796,24.1998 1.0918,2.5466 0.5093,2.5193 -7.437,-0.3487 z m 338.0672,-24.1926 c 7.077,-28.3644 18.1515,-55.003 30.9064,-74.342 l 5.0324,-7.6302 3.7455,7.6303 c 4.2839,8.7268 5.7886,12.9129 9.5359,26.5271 2.3927,8.693 6.308,29.7399 6.308,33.909 0,1.2723 -2.1934,1.5942 -10.8626,1.5942 -16.7506,0 -27.153,4.0342 -40.22,15.598 -3.118,2.7592 -5.86,5.0168 -6.0932,5.0168 -0.2333,0 0.5082,-3.7364 1.6476,-8.3032 z m -282.5821,-9.2556 c -11.6507,-16.6035 -33.1155,-32.0278 -46.7805,-37.3946 -2.0184,-0.7927 -4.0826,-1.919 -4.5872,-2.503 -0.9474,-1.0963 -8.7981,-40.1387 -8.2203,-40.8801 0.5633,-0.7228 13.484,4.5268 19.4466,7.901 19.1246,10.822 38.842,38.2518 45.673,71.8563 1.2318,6.0594 2.1489,11.1304 2.038,11.2689 -0.111,0.1384 -3.5173,-4.4734 -7.5696,-10.2485 z m 112.9178,-33.492 c -6.1806,-6.8113 -20.2609,-17.9313 -42.243,-33.3618 -24.2398,-17.0153 -31.429,-19.7286 -32.1744,-22.097 -0.841,-2.6725 -4.0705,-23.3076 -3.717,-23.749 0.1733,-0.2163 3.3606,1.119 7.0828,2.9672 26.7734,13.294 42.7426,22.783 58.7348,42.5418 8.378,10.3512 11.2904,14.7965 13.6052,20.7664 2.929,7.5537 4.6944,17.0707 3.1498,16.9796 -0.445,-0.0263 -2.442,-1.8474 -4.4382,-4.0472 z M 585.0187,203.404 c 5.299,-15.293 10.7705,-37.4552 12.0476,-38.067 0.8492,-0.4068 6.6203,-0.7396 8.312,-0.7396 15.3904,0 41.5203,-14.6474 61.287,-35.853 4.6242,-4.9607 5.2627,-5.3523 4.8404,-2.9687 -5.0639,28.5817 -7.6756,35.862 -17.5798,49.0046 -14.986,19.886 -34.2994,29.1372 -61.7,31.7 l -8.5502,0.7998 z M 213.625,187.458 c -4.5414,-5.137 -15.1826,-16.3206 -23.647,-24.8523 -8.4645,-8.5317 -15.2766,-15.6384 -15.1379,-15.7927 0.1387,-0.1542 5,0.1228 10.8028,0.6155 9.107,0.7733 12.2335,1.625 22.8508,6.2252 6.7651,2.931 13.007,5.8014 13.8709,6.3786 1.6642,1.1118 2.1649,2.6332 0.1166,27.2507 l -0.5992,9.515 z m 199.5117,-35.9211 c -3.6209,-4.272 -28.2269,-23.853 -35.1863,-28.0006 -4.3455,-2.5899 -7.9009,-5.1507 -7.9009,-5.6909 0,-1.8966 23.4749,-29.6926 30.7542,-36.4152 8.7602,-8.0904 24.167,-17.7923 39.703,-25.0017 6.205,-2.8794 11.6882,-5.2353 12.1847,-5.2353 0.4966,0 -5.4326,11.7247 -13.176,26.0548 -8.4275,15.5963 -15.0822,29.2078 -16.5786,33.9098 -1.375,4.3202 -3.6022,15.5295 -4.9496,24.9095 -1.3474,9.38 -2.6877,17.0545 -2.9785,17.0545 -0.2907,0 -1.1331,-0.7132 -1.872,-1.585 z m -119.9233,-51.431 c -8.6215,-6.7267 -8.5441,-6.4672 -6.1833,-20.735 4.0235,-24.316 17.9837,-42.5902 29.474,-57.4857 l 4.462,-3.4711 -5.2548,13.24 c -2.8901,7.2821 -6.2897,17.7796 -7.5546,23.3277 -2.4322,10.6684 -5.9849,38.124 -5.9932,46.3168 -0.003,2.677 -0.3146,4.8325 -0.693,4.79 -0.3785,-0.0426 -4.0942,-2.7348 -8.2571,-5.9828 z"/>
    <ellipse fill="#FFFFFF" transform="matrix(0.80807308,0.58908225,-0.5353197,0.84464952,0,0)" ry="114.39596" rx="98.936325" cy="220.51093" cx="554.47583"/>
    <ellipse fill="#FFFFFF" transform="matrix(0.80689431,-0.59069584,-0.53372772,-0.84565639,0,0)" ry="114.25979" rx="98.668091" cy="-725.05548" cx="170.66507"/>
    <path fill="#FCE6D0" d="m 233.2903,529.2704 c 0.001,-12.1982 1.7766,-28.4335 4.0868,-37.3716 4.0094,-15.5128 15.791,-35.7008 30.8176,-52.8069 10.4026,-11.8421 33.6234,-26.3028 48.1443,-29.9817 16.2212,-4.1097 40.3264,-3.8726 53.6786,0.528 18.588,6.1261 34.432,20.5247 46.5702,42.3216 l 2.7507,4.9393 c -33.0414,14.6143 -67.1423,29.7602 -95.4922,42.352 -49.549,22.008 -87.79,38.2693 -89.9969,38.2693 -0.308,0 -0.5596,-3.7125 -0.5591,-8.25 z m 373.4192,-1.66 c -82.0481,-33.386 -96.7774,-40.0698 -169.8756,-71.3456 l 3.7284,-6.6222 c 6.7587,-12.0043 8.659,-14.5417 16.9829,-22.6761 6.621,-6.4704 10.142,-8.9835 17.9076,-12.7816 13.5587,-6.6315 20.965,-7.9566 41.2085,-7.3728 12.5812,0.3629 17.9723,0.9564 23.729,2.6121 26.2514,7.5507 51.5275,29.054 67.6963,57.5919 6.3725,11.2475 9.7138,20.156 11.4412,30.5043 1.4851,8.8971 1.982,35.0546 0.6635,34.925 -0.4198,-0.0413 -6.4866,-2.217 -13.4818,-4.835 z"/>
    <path fill="#060504" d="m 304.1095,628.0917 c -12.4164,-0.9518 -16.9482,-2.1533 -26.1821,-6.9415 -18.6333,-9.6623 -33.2874,-25.3459 -42.495,-45.4805 -6.3646,-13.9176 -7.8398,-21.935 -8.3858,-45.5727 l -0.4857,-21.025 -31.0081,-5.56 c -17.0545,-3.058 -51.1066,-8.7417 -75.5362,-13.371 -26.1833,-4.9617 -23.1356,-3.9094 -23.1356,-8.6023 0,-1.6935 0.488,-2.217 1.7712,-1.9005 6.6744,1.6463 120.1004,21.2062 126.5005,21.8899 2.7623,0.295 3.043,-0.0597 5.173,-6.539 3.2606,-9.9185 12.6444,-29.9428 18.2057,-38.8495 7.0439,-11.2814 12.8612,-18.4224 21.5916,-26.5046 14.8326,-13.7313 28.6597,-21.6695 46.2304,-26.5412 9.0294,-2.5036 11.921,-2.8067 26.8195,-2.812 15.255,-0.005 17.4688,0.238 25.6016,2.8146 11.872,3.7614 19.1891,7.7227 28.3156,15.3293 9.0854,7.5723 16.6717,17.616 24.7362,32.749 l 5.968,11.1989 5.1472,-10.7225 c 5.9398,-12.3739 15.416,-25.9166 22.3332,-31.9168 18.3664,-15.9316 46.9593,-23.4017 72.888,-19.0423 44.6678,7.51 83.0237,46.7243 96.883,99.051 2.0506,7.7425 2.4083,8.361 4.6458,8.0332 6.1045,-0.8945 76.608,-16.5615 106.6381,-23.6968 18.3536,-4.3608 3.9074,0.0712 4.564,0.0712 1.756,0 1.7028,4.2642 0.1144,4.803 -0.6757,0.2292 10.505,-1.0339 -14.265,4.5265 -59.411,13.3366 -97.1858,22.195 -97.9292,22.9653 -0.3313,0.3432 -0.9483,8.0499 -1.3713,17.126 -0.8946,19.1967 -1.6474,23.7718 -5.9275,36.0235 -9.6674,27.6722 -32.4954,49.9109 -58.7255,57.2093 -9.857,2.7427 -37.0942,2.4465 -47.7443,-0.5193 -24.9646,-6.952 -46.9256,-22.8586 -64.0215,-46.372 -9.2116,-12.6694 -14.0281,-21.4616 -19.3503,-35.323 l -4.1184,-10.7262 -3.3434,8.6291 c -9.4694,24.4405 -24.3545,46.0844 -41.5473,60.4123 -24.882,20.7361 -46.441,27.6484 -78.5548,25.1866 z m 36.0272,-8.1776 c 9.6766,-2.697 25.8968,-11.0994 34.5582,-17.9018 9.9772,-7.8358 25.9276,-25.7748 31.5659,-35.5013 16.8642,-29.0922 21.817,-62.9841 14.5356,-99.466 -2.4388,-12.219 -15.9104,-32.8628 -28.4241,-43.5568 -12.5863,-10.7561 -24.3443,-15.1018 -43.8502,-16.2068 -25.5893,-1.4496 -44.9773,4.6285 -64.8394,20.327 -19.6285,15.5137 -38.7648,43.2194 -45.2354,65.492 -4.4268,15.238 -6.0813,48.3991 -3.1334,62.8062 6.2233,30.4155 33.6112,59.3682 61.9423,65.4814 9.8705,2.1298 32.7754,1.3425 42.8805,-1.474 z m 222.5406,-0.0452 c 3.5565,-1.2566 9.477,-3.8685 13.1568,-5.8044 19.9008,-10.4688 36.6177,-31.2968 42.103,-52.4571 3.4393,-13.2676 2.86,-51.7985 -1.0076,-67.0233 -3.7288,-14.6785 -13.3853,-32.134 -26.5113,-47.923 -21.6376,-26.0277 -43.5844,-37.9351 -72.6653,-39.4253 -35.7352,-1.831 -61.0778,12.535 -77.3364,43.8402 -4.9178,9.4688 -6.6783,15.0785 -8.6922,27.696 -4.0087,25.1153 0.0403,54.1613 10.5969,76.0198 16.5886,34.3482 47.4511,60.4235 78.8064,66.5826 11.535,2.2657 33.0865,1.4848 41.5497,-1.5055 z M 146.6643,860.961 c 0,-0.273 3.2852,-9.3018 7.3005,-20.064 l 7.3006,-19.5674 3.9494,2.7757 c 10.0504,7.0636 24.573,7.7676 50.4495,2.4458 17.3592,-3.5702 39.1518,-4.6416 64.1248,-3.1524 16.2796,0.9708 21.649,1.7597 31.5,4.6285 19.7701,5.7575 41.0898,14.7699 62.3752,26.3678 l 8.5,4.6314 -55,0.6096 c -125.2018,1.3877 -180.5,1.7936 -180.5,1.325 z m 451.5,-0.7022 c -19.121,-0.3579 -28.4375,-1.0228 -60.75,-1.0671 -36.1373,-0.0494 -58.4282,0.0562 -58.4282,-0.6105 0,-0.5962 0.1275,-3.4815 1.365,-5.0578 2.6316,-3.3516 12.5116,-5.2359 42.525,-10.428 17.4953,-3.9965 11.1955,0.5222 42.3906,-17.9256 0,0 5.3246,-4.2568 13.2876,-6.595 8.3333,-2.5508 29.3605,-2.0256 29.3605,-2.0256 25.3977,0.1343 48.683,0.7472 65.8413,-2.236 3.4677,-1.2052 6.436,-2.0406 6.5963,-1.8566 0.442,0.5074 17.3119,47.5917 17.3119,48.318 0,1.0515 -70.3948,-0.7456 -99.5,-0.5153 z m -222,-7.1278 c -22.421,-11.7552 -42.4401,-20.2691 -64.237,-27.3198 -21.3284,-6.899 -66.2344,-7.6705 -95.763,-1.6451 -10.5467,2.152 -18.8595,3.108 -28,3.2198 -12.5081,0.1531 -13.2062,0.0344 -18.4499,-3.133 -6.0507,-3.6553 -14.931,-13.6206 -18.6787,-20.9612 -3.4111,-6.681 -3.9836,-14.363 -1.8825,-25.2603 3.629,-18.8217 11.1833,-28.9976 29.7775,-40.111 l 15.2447,-8.1265 c 0,0 3.4917,3.0808 9.1789,9.0648 10.4652,7.9332 10.46,10.7867 19.81,17.5624 56.6958,41.0858 88.4786,55.8567 155.5,72.2675 6.9708,1.7069 7.747,2.202 11,7.0165 1.925,2.849 7.202,9.2807 11.7265,14.293 l 8.2266,9.1129 -11.2266,-0.1068 -11.2265,-0.1067 -11,-5.7672 z m 64.595,-4.0411 c 4.6723,-5.5366 9.8557,-12.0073 11.5186,-14.3795 2.9941,-4.2715 3.158,-4.3403 17.0086,-7.129 37.2284,-7.4957 79.3484,-23.8928 111.3778,-43.3586 29.1575,-17.7206 54.5741,-38.0103 67.4252,-50.9346 l 6.8257,-9.1437 8.7099,2.2526 c 13.3334,1.4527 22.1301,14.119 30.295,28.6619 5.3703,9.5654 8.4549,11.982 9.7512,25.161 -1.1111,11.691 -5.4347,16.4352 -5.4347,16.4352 -6.5483,7.2802 -4.0136,4.4418 -11.8786,9.1858 -14.4962,8.7438 -16.2087,8.9996 -61.1937,9.142 -49.2213,0.1559 -45.4596,-0.5998 -69.5,13.9617 -14.3403,8.686 -14.4563,8.726 -37.5,12.9412 -10.45,1.9116 -23.725,4.632 -29.5,6.0458 0,0 -2.7188,0.8158 -6.5,2.5704 -3.7007,2.4933 -3.1323,2.2629 -4.5,4.0174 -0.5632,2.3087 -0.5,4.0175 -0.5,4.0175 l -22.4502,0.3096 -22.4502,0.3095 z M 382.3925,721.351 c -6.8574,-0.3193 -7.784,-0.6235 -10.8152,-3.5513 l -3.3152,-3.202 5.3152,-0.651 c 2.9234,-0.3582 25.6777,-0.6957 50.5652,-0.75 l 45.25,-0.099 v 9 l -39.75,-0.1988 c -21.8625,-0.1093 -43.125,-0.3559 -47.25,-0.548 z"/>
    <path fill="#4F2F00" d="m 742.886,544.2616 c -5.8402,-12.9922 -16.3576,-49.5486 -21.7605,-75.6353 -1.1612,-5.6069 -2.4166,-10.1943 -2.7898,-10.1943 -0.3731,0 -3.048,3.6559 -5.944,8.1242 -7.3916,11.404 -20.8046,23.186 -33.13,29.1011 l -2.0073,0.9634 1.5921,-11.8127 c 4.2846,-31.7896 10.2561,-44.413 0.7716,-95.697 -6.7748,-27.4903 -9.8294,-39.59 -15.33,-57.5856 -0.7073,-0.8957 -6.0319,6.1872 -9.5979,12.7675 -5.6352,10.3983 -21.8247,48.9508 -23.4408,55.82 -2.7686,11.771 -1.5627,5.1522 -8.408,19.441 l 0.2862,-16.3865 c 0.3501,-20.057 -1.5614,-40.4485 -5.8398,-62.2963 -1.7058,-8.7112 -3.5784,-19.2463 -4.1611,-23.4113 -2.2337,-15.964 -8.758,-37.755 -14.8863,-49.7202 l -3.0886,-6.0304 -6.5242,10.3773 c -7.4462,11.8436 -16.4453,31.0786 -21.588,46.1425 -3.698,10.8324 -9.3194,31.1 -9.525,34.3422 -1.5838,5.0185 -3.9412,2.8767 -4.8632,0.1317 -2.3875,-7.1827 -5.701,-20.9508 -8.7373,-36.3047 -7.6367,-38.6171 -12.2511,-50.991 -28.6803,-76.9082 l -2.387,-3.7655 0.0795,59.2173 c 0.0563,41.9458 -0.2973,64.598 -1.2124,77.6658 l -1.292,18.4485 -3.5295,-5.0503 c -1.9412,-2.7777 -7.8848,-13.1766 -13.2079,-23.1087 -13.5387,-25.2615 -19.9792,-35.1264 -36.9462,-56.5908 -14.0405,-17.7622 -28.7321,-33.86 -38.6971,-42.401 l -4.5117,-3.8669 0.5459,3.9532 c 2.8395,20.564 3.122,48.8507 0.6184,61.9225 l -1.0614,5.5417 -5.2311,-5.8849 c -15.7716,-19.3808 -18.931,-41.2721 -32.3494,-58.2087 -16.0889,-20.1003 -28.4403,-29.7532 -55.3754,-43.277 -3.7448,-1.8803 -6.9512,-3.2386 -7.1256,-3.0185 -0.1743,0.22 0.527,5.6148 1.5586,11.9884 2.1244,13.1265 2.3911,34.7262 0.776,62.851 -1.5775,27.4688 -4.0472,45.8545 -8.8035,65.5376 l -2.3273,9.6312 -5.5129,-5.3546 c -10.7543,-12.2183 -11.4233,-16.2091 -18.3607,-28.7445 -6.753,-35.3984 -23.033,-64.14 -42.7076,-75.3979 -6.0042,-3.4355 -18.9952,-8.7714 -19.5686,-8.0375 -0.311,0.398 6.3876,36.8396 7.4662,40.6182 0.2744,0.9611 0.6485,4.369 0.8313,7.5728 0.1829,3.204 0.7645,10.806 1.2924,16.8934 0.528,6.0874 0.9672,20.9385 0.976,33.0023 l 0.016,21.9343 -2.469,-3.8758 c -15.1956,-23.8553 -35.107,-38.2317 -52.9103,-38.2023 -5.8989,0.009 -12.1136,3.1424 -14.1972,7.1563 -1.7527,3.3765 -3.0816,11.6165 -3.7241,23.0924 -0.8223,14.6864 -7.3885,73.8373 -8.376,75.4542 -0.1033,0.1693 -4.2845,-2.845 -9.2915,-6.6983 -6.4966,-5 -9.2862,-6.5894 -9.7416,-5.5506 -0.5346,1.2193 -2.1012,68.0052 -22.6826,89.4862 l -9.4225,9.8344 -0.0478,-6.9124 c -0.0263,-3.8018 0.6186,-23.2 1.433,-43.1072 2.5187,-61.5593 0.5293,-116.261 -5.045,-138.7201 -2.4008,-9.6728 -6.8935,-23.5575 -10.7519,-33.2287 -1.784,-4.472 -2.9036,-8.131 -2.4878,-8.131 0.4158,0 6.9627,3.162 14.5487,7.0267 7.586,3.8646 16.951,8.255 20.8112,9.7564 l 7.0185,2.7299 0.595,-15.2905 c 1.105,-28.392 -1.2193,-41.389 -13.6453,-76.3067 -2.3651,-6.646 -4.0878,-12.3519 -3.8282,-12.6795 0.9465,-1.1948 20.6658,8.1332 31.454,14.879 6.0918,3.8092 14.7215,10.3495 19.1771,14.5342 5.1602,4.8463 8.2444,7.0752 8.4955,6.1395 0.2168,-0.808 0.8285,-4.58 1.3594,-8.3821 2.0604,-14.7578 0.556,-32.6238 -3.6046,-42.8076 -4.8326,-11.8283 -14.6004,-28.5246 -23.7017,-40.5135 l -9.7729,-12.8737 c 0,0 18.3575,-17.1933 43.5823,1.6734 0,0.205 6.957,7.4634 15.46,16.1298 8.503,8.6664 19.1982,20.0333 23.767,25.2597 l 8.307,9.5026 0.5918,-8.9824 c 0.3256,-4.9403 0.8793,-15.8396 1.2305,-24.2206 0.3512,-8.381 0.7663,-15.5109 0.9224,-15.844 0.1561,-0.3332 -0.111,-6.0505 -0.5935,-12.7052 -1.4227,-19.621 -6.5933,-34.9137 -18.1301,-53.6218 l -6.0424,-9.7983 20.4155,0.8162 c 35.0055,1.3993 45.0579,4.513 62.523,19.3665 7.3852,6.281 18.7376,15.1422 19.399,15.1422 0.2449,0 0.4475,-2.2282 0.4502,-4.9515 0.009,-8.4543 4.1818,-36.1653 6.066,-47.1173 C 309.0322,35.3001 308.478,30.4856 318.6502,15.827 326.0457,5.17 334.1211,2.8935 337.8685,2.8935 h 2.7177 l 0.5789,21.845 c 0.8018,30.2552 4.999,62.3858 9.4067,72.0094 3.1627,6.9054 12.6037,17.2092 17.0633,18.6225 0.2538,0.0804 3.3689,1.9054 6.9224,4.0554 8.3153,5.0312 15.2858,10.4065 28.6542,22.0969 5.9376,5.1923 10.8893,9.2854 11.0039,9.0957 0.1145,-0.1896 1.3033,-8.05 2.6417,-17.4673 1.3385,-9.4174 2.6657,-16.5981 4.928,-25.0488 5.0409,-14.7433 8.2278,-18.655 16.5848,-34.2938 3.3794,-6.3894 4.1962,-8.0648 13.063,-21.4942 l 7.464,-8.2816 0.4915,4.188 c 0.2702,2.3033 0.741,7.3336 1.0463,11.1782 0.8712,10.9762 4.2958,44.2306 4.5984,44.653 0.5493,0.767 31.4777,-24.6443 38.691,-31.7892 9.0635,-8.9774 22.2552,-26.031 25.9459,-33.5415 1.495,-3.0425 2.9694,-5.5329 3.2761,-5.534 0.7442,-0.0023 4.183,15.1323 5.4261,23.8816 0.5463,3.8447 1.2546,17.3654 1.5741,30.046 0.3195,12.6806 0.93,23.328 1.3568,23.661 1.271,0.9915 11.0136,-9.1502 18.7695,-19.5383 8.6244,-11.5513 13.9211,-21.5557 19.861,-37.513 4.176,-11.2188 11.0645,-35.9607 11.0645,-39.7414 0,-3.0012 1.5837,-1.9523 2.1664,1.4348 6.721,39.073 8.101,57.3897 8.102,107.536 0.9399,26.2947 -0.9077,35.8879 -6.6158,55.3404 -3.6391,9.5792 -7.2246,19.191 -7.9678,21.3597 l -1.3512,3.9431 8.6019,-0.8136 c 27.5661,-2.6071 45.139,-12.0182 60.2157,-32.248 16.9635,-21.954 10.9308,-40.8646 22.4507,-58.879 l 4.3895,-6.808 0.6114,5.8191 c 0.3363,3.2006 0.6478,25.6107 0.6922,49.8003 0.0445,24.1896 0.3924,43.9784 0.7731,43.9751 0.3808,-0.003 11.472,-2.6247 24.6474,-5.8253 13.1753,-3.2007 24.112,-5.8194 24.3037,-5.8194 0.1918,0 -0.4802,1.704 -1.4932,3.7865 -3.8778,7.9717 -8.4174,20.5646 -11.6549,32.3303 -3.4695,12.6091 -7.3669,32.496 -6.5664,33.5064 0.249,0.3143 3.689,2.2473 7.6444,4.2955 24.5955,12.736 43.5707,40.7599 51.319,75.7915 2.229,10.0775 8.9471,47.7218 8.9422,50.1064 -0.001,0.636 -1.4848,-1.947 -3.2967,-5.74 -9.5452,-19.9816 -21.798,-34.4695 -32.6068,-38.555 -2.1808,-0.8243 -2.2067,-0.7458 -1.5936,4.8308 6.4079,58.2845 7.0307,70.4764 6.6278,129.7475 -0.2761,40.6278 -0.6314,52.2734 -1.7914,58.713 -0.7958,4.418 -1.5612,8.1768 -1.7007,8.353 -0.1396,0.1761 -1.4721,-2.39 -2.9612,-5.7027 z"/>
    <ellipse ry="11.7801" rx="12.3037" cy="522.79578" cx="363.75919"/>
    <ellipse ry="11.7801" rx="12.3037" cy="520.64917" cx="483.40311"/>
</svg>
