<?xml version="1.0" encoding="UTF-8"?>
<svg xmlns="http://www.w3.org/2000/svg" width="1000" height="1000">
  <ellipse cx="490.2827" cy="601.4832" fill="#fce6d0" rx="379.9615" ry="364.0656"/>
  <path fill="#fce6d0" d="M595.4103 939.9849l-55.7127 19.774-26.3402 39.8308-49.214.2974-36.314-42.288-23.8523-11.773c95.433-6.7352 96.7564-5.201 191.4331-5.8412z"/>
  <path fill="#060504" d="M745.5255 468.7323c0-2.0703.8184-7.0212 1.8186-11.0024 1.9784-7.8743 21.7976-52.0677 28.6961-63.9874 4.3657-7.5431 10.884-15.6623 11.75-14.6356 1.0057 1.1926 15.3614 48.155 15.3614 50.2525 0 1.2199-57.7525 43.137-59.3671 43.137-.2929 0 1.741-1.6937 1.741-3.764zm-502.8291-45.8185c-14.3134-4.8915-31.911-6.6792-57.5944-6.454l-24.3388.2135.3726-8.4948c.8094-18.4526 3.3193-25.2999 10.7324-29.278 12.4684-6.6913 38.1305.3291 56.2429 16.1998 7.4435 6.5222 21.466 23.1876 23.7446 28.2201 1.3447 2.9697.6273 2.9379-9.1593-.4066zm416.362-28.2117c8.716-33.0766 22.3554-64.1406 38.0643-86.6924l6.1978-8.8978 4.613 8.8979c5.276 10.1766 7.1292 15.0581 11.7444 30.934 2.9468 10.1372 7.7689 34.6806 7.7689 39.5423 0 1.4837-2.7014 1.859-13.3784 1.859-20.63 0-33.4415 4.7045-49.5348 18.1894-3.84 3.2176-7.2171 5.8502-7.5043 5.8502-.2873 0 .6259-4.3571 2.0292-9.6826zM311.0317 383.909c-14.349-19.3619-40.785-37.3486-57.6147-43.607-2.4858-.9244-5.0281-2.2378-5.6496-2.9188-1.1668-1.2784-10.8357-46.807-10.124-47.6715.6937-.8429 16.6068 5.2788 23.9503 9.2136 23.5538 12.6198 47.8376 44.6066 56.2507 83.7938 1.517 7.066 2.6465 12.9794 2.51 13.141-.1367.1614-4.332-5.2166-9.3227-11.9511zm139.069-39.056c-7.612-7.943-24.9532-20.9103-52.0263-38.9042-29.8536-19.842-38.7078-23.0061-39.6258-25.768-1.0358-3.1165-5.0132-27.1797-4.5778-27.6944.2134-.2523 4.1389 1.3049 8.7231 3.4601 32.974 15.5026 52.6416 26.568 72.3375 49.6093 10.3183 12.0708 13.9052 17.2546 16.7561 24.2163 3.6074 8.8086 5.7816 19.9067 3.8793 19.8004-.548-.0307-3.0075-2.1543-5.466-4.7195zm240.412-111.5168c6.5262-17.8336 13.2649-43.6776 14.8377-44.391 1.0459-.4744 8.1536-.8625 10.237-.8625 18.9548 0 51.1363-17.0808 75.4809-41.8093 5.6951-5.7848 6.4815-6.2415 5.9614-3.4619-6.2367 33.33-9.4533 41.8198-21.6512 57.1457-18.4567 23.1897-42.243 33.9778-75.9895 36.9664l-10.5304.9326zm-457.407-18.5951c-5.593-5.9904-18.6988-19.032-29.1235-28.981-10.4248-9.949-18.8146-18.2364-18.6437-18.4164.1708-.1798 6.158.1432 13.3046.7178 11.2162.9018 15.0668 1.895 28.143 7.2594 8.3319 3.418 16.0194 6.7652 17.0833 7.4383 2.0497 1.2965 2.6663 3.0706.1436 31.7778l-.738 11.0957zm245.7178-41.8887c-4.4595-4.9817-34.7641-27.8157-43.3353-32.6523-5.3519-3.0202-9.7307-6.0064-9.7307-6.6363 0-2.2117 28.9116-34.6255 37.8768-42.4649 10.789-9.4344 29.764-20.7481 48.898-29.1552 7.642-3.3578 14.3951-6.105 15.0066-6.105.6116 0-6.6907 13.6725-16.2275 30.3832-10.3792 18.1873-18.5751 34.0601-20.4181 39.5433-1.6935 5.0379-4.4365 18.1094-6.096 29.0477-1.6594 10.9383-3.31 19.8877-3.6682 19.8877-.358 0-1.3955-.8317-2.3056-1.8483zm-147.697-59.9752c-10.6182-7.8442-10.5229-7.5416-7.6153-24.1797 4.9553-28.3556 22.1486-49.6657 36.3-67.0358l5.4954-4.0477-6.4718 15.4395c-3.5594 8.4919-7.7463 20.7333-9.3042 27.2031-2.9955 12.4408-7.371 44.4576-7.3812 54.0114-.003 3.1218-.3874 5.6354-.8535 5.5858-.4661-.0497-5.0424-3.1891-10.1694-6.9767z"/>
  <ellipse cx="643.4414" cy="275.2264" fill="#fff" rx="119.6417" ry="135.5889" transform="matrix(.82299 .56806 -.55625 .83102 0 0)"/>
  <ellipse cx="183.5397" cy="-839.0355" fill="#fff" rx="119.3051" ry="135.4147" transform="matrix(.82187 -.56968 -.55465 -.83209 0 0)"/>
  <path fill="#fce6d0" d="M257.3254 613.3386c.001-14.2247 2.188-33.1571 5.0333-43.5801 4.938-18.09 19.4481-41.6318 37.9548-61.5797 12.8118-13.8095 41.4104-30.6725 59.2943-34.9626 19.978-4.7924 49.6658-4.516 66.1103.6157 22.893 7.1439 42.4064 23.9345 57.3557 49.3525l3.3878 5.7599c-40.6937 17.0422-82.6922 34.7042-117.6078 49.388-61.0244 25.6641-108.1218 44.6269-110.8398 44.6269-.3794 0-.6892-4.3293-.6886-9.6206zm459.9015-1.9358c-101.0501-38.9324-119.1907-46.7265-209.218-83.1982l4.5918-7.7223c8.324-13.9986 10.6644-16.9576 20.916-26.4433 8.1544-7.5453 12.4909-10.476 22.055-14.905 16.6988-7.7332 25.8204-9.2784 50.7522-8.5977 15.495.4232 22.1346 1.1153 29.2245 3.046 32.3311 8.8052 63.461 33.8808 83.3745 67.1597 7.8483 13.116 11.9635 23.5045 14.091 35.572 1.829 10.3752 2.441 40.8782.817 40.727-.517-.0481-7.9888-2.5852-16.604-5.6382z"/>
  <path fill="#060504" d="M344.546 728.577c-15.292-1.1098-20.8733-2.511-32.2458-8.0946-22.9487-11.2675-40.9966-29.5566-52.3366-53.0362-7.8386-16.2297-9.6555-25.579-10.328-53.1437l-.5981-24.5178-38.1895-6.4837c-21.0042-3.566-62.9426-10.194-93.03-15.5923-32.2473-5.786-28.4937-4.559-28.4937-10.0314 0-1.9749.601-2.5854 2.1814-2.2163 8.2201 1.9198 147.9151 24.7292 155.7975 25.5265 3.402.344 3.7477-.0696 6.371-7.6253 4.0157-11.5663 15.5728-34.9172 22.422-45.3036 8.6753-13.1556 15.8399-21.4829 26.5922-30.9078 18.2677-16.0125 35.2971-25.2694 56.9371-30.9505 11.1206-2.9195 14.6819-3.273 33.0308-3.2791 18.788-.006 21.5145.2775 31.5308 3.2822 14.6215 4.3862 23.6333 9.0056 34.8734 17.8759 11.1895 8.8303 20.5328 20.5426 30.465 38.1896l7.3502 13.0594 6.3392-12.5039c7.3155-14.4295 18.9863-30.222 27.5055-37.2191 22.62-18.5783 57.8349-27.2894 89.7686-22.2058 55.0126 8.7576 102.2516 54.4866 119.3207 115.5063 2.5255 9.0288 2.966 9.75 5.7217 9.3678 7.5183-1.0431 94.35-19.3129 131.335-27.6336 22.6042-5.0852 4.8123.083 5.621.083 2.1627 0 2.0972 4.9727.141 5.601-.8323.2673 12.9378-1.2057-17.5688 5.2785-73.1703 15.5522-119.6936 25.8822-120.6092 26.7805-.408.4002-1.1679 9.3872-1.6889 19.9711-1.1017 22.3859-2.0289 27.721-7.3002 42.008-11.9064 32.2695-40.0213 58.2027-72.3261 66.7136-12.1399 3.1983-45.685 2.8529-58.8017-.6056-30.7463-8.107-57.7934-26.6561-78.8486-54.0758-11.345-14.7741-17.277-25.027-23.8317-41.1912l-5.0723-12.5081-4.1177 10.0626c-11.6625 28.5008-29.9949 53.7404-51.1695 70.4486-30.6445 24.181-57.1965 32.2416-96.7477 29.3709zm44.371-9.536c11.9176-3.1451 31.8943-12.9434 42.5617-20.8759 12.2879-9.1375 31.9323-30.0568 38.8764-41.3991 20.7699-33.9253 26.8697-73.4477 17.902-115.9903-3.0036-14.249-19.5952-38.3223-35.007-50.7929-15.5012-12.543-29.9823-17.6106-54.0057-18.8992-31.5157-1.6904-55.3939 5.3974-79.856 23.704-24.1743 18.091-47.7425 50.3993-55.7117 76.372-5.452 17.7696-7.4897 56.4397-3.859 73.2403 7.6645 35.4684 41.3953 69.231 76.2878 76.3598 12.1565 2.4836 40.366 1.5655 52.8115-1.7189zm274.08-.0528c4.3802-1.4653 11.6718-4.5111 16.2039-6.7687 24.5097-12.208 45.0982-36.496 51.8538-61.1717 4.2359-15.4718 3.5224-60.4038-1.241-78.158-4.5923-17.117-16.4852-37.4723-32.6511-55.8843-26.6488-30.3517-53.6784-44.2373-89.4943-45.975-44.0113-2.1352-75.2232 14.6174-95.2472 51.1233-6.0567 11.0419-8.225 17.5835-10.7053 32.2971-4.937 29.2877.0497 63.1591 13.0511 88.649 20.4305 40.0544 58.4406 70.4616 97.0577 77.644 14.2064 2.642 40.7491 1.7314 51.1724-1.7557zm-512.3598 281.1446c0-.3182 4.046-10.847 8.9912-23.3971l8.9914-22.8181 4.864 3.2368c12.3781 8.237 30.264 9.058 62.1335 2.852 21.3795-4.1632 48.2191-5.4126 78.9758-3.676 20.0499 1.132 26.6628 2.052 38.7953 5.3974 24.3487 6.714 50.606 17.2236 76.821 30.7482l10.8546 7.7176c-161.5795.01-161.323.3321-290.4268-.061zm409.286-.1795c.1367-1.6515.1571-6.6554 1.6812-8.4937 3.241-3.9083 15.4092-6.1057 52.3736-12.1603 21.5471-4.6604 13.7883.609 52.208-20.9036 0 0 6.5578-4.964 16.365-7.6906 10.2633-2.9746 36.1603-2.3621 36.1603-2.3621 31.2797.1566 59.9578.8713 81.0899-2.6075 4.2708-1.4054 7.9265-2.3796 8.124-2.165.5443.5917 21.3212 55.4981 21.3212 56.345 0 1.2262-94.4846-.0497-130.3304.2188-68.9463.699-91.0405.039-138.9927-.181zm-126.6348-8.9512c-27.6136-13.708-52.269-23.6364-79.114-31.8584-26.268-8.0452-81.574-8.9448-117.9413-1.9184-12.9893 2.5095-23.2273 3.6243-34.4847 3.7547-15.405.1785-16.2647.04-22.7228-3.6535-7.452-4.2626-18.389-15.8834-23.0046-24.4435-4.2011-7.7909-4.9062-16.7491-2.3185-29.4568 4.4694-21.9485 13.7733-33.815 36.6738-46.7746l18.7753-9.4766s4.3004 3.5926 11.3047 10.5708c12.889 9.2511 12.8825 12.5787 24.398 20.48 69.8263 47.9114 108.9698 65.1362 191.513 84.2733 8.5853 1.9905 9.5412 2.5678 13.5476 8.1822 2.3708 3.3222 8.87 10.8225 14.4423 16.6674l10.9515 12.9492-15.056-.1245-13.8266.012-13.1377-9.1842zm79.5549-4.7124c5.7544-6.4564 12.1382-14.0021 14.1863-16.7684 3.6875-4.9811 3.8893-5.0614 20.9477-8.3134 45.8503-8.741 97.7251-27.862 137.1724-50.5617 35.9103-20.6645 67.2132-44.325 83.0406-59.3964l8.4065-10.6627 10.727 2.6268c16.4214 1.694 27.2554 16.4646 37.3113 33.4235 6.614 11.1545 10.413 13.9726 12.0095 29.341-1.3684 13.6332-6.6934 19.1656-6.6934 19.1656-8.0648 8.4897-4.943 5.1797-14.6296 10.7118-17.8535 10.1964-19.9626 10.4947-75.3659 10.6608-60.6207.1818-55.9878-.6995-85.5959 16.2811-17.6614 10.129-17.8043 10.1757-46.1848 15.0912-12.8702 2.2291-29.2196 5.4015-36.3321 7.0501 0 0-3.3485.9514-8.0054 2.9975-4.5577 2.9074-3.8577 2.6388-5.5422 4.6848-.6936 2.6922-1.2988 7.4171-1.2988 7.4171l-27.513.088-29.4254-.049zM440.959 857.879c-8.4455-.3723-9.5867-.727-13.32-4.1412l-4.083-3.734 6.5462-.7591c3.6005-.4177 31.6246-.8113 62.276-.8746l55.7296-.1155V858.75l-48.9559-.2318c-26.9258-.1275-53.1126-.415-58.1929-.639z"/>
  <path fill="#4f2f00" d="M884.9413 630.8203c-7.1928-15.1506-20.146-57.7801-26.8002-88.2006-1.4301-6.5384-2.9763-11.8879-3.4359-11.8879-.4595 0-3.7539 4.2633-7.3206 9.474-9.1035 13.2985-25.6228 27.0378-40.8028 33.9356l-2.4721 1.1234 1.9608-13.7751c5.2769-37.0708 12.6314-51.7913.9503-111.5951-8.3438-32.0573-12.1059-46.1671-18.8804-67.1523-.871-1.0445-7.4288 7.215-11.8207 14.8885-6.9403 12.1258-26.8792 57.083-28.8696 65.0934-3.4098 13.7265-1.9246 6.0081-10.3553 22.6707l.3525-19.1088c.4312-23.389-1.923-47.1682-7.1922-72.6455-2.101-10.1584-4.4072-22.4437-5.1248-27.3006-2.751-18.6161-10.7864-44.0273-18.334-57.9803l-3.8039-7.0322-8.0351 12.1013c-9.1707 13.8112-20.254 36.2417-26.5877 53.8081-4.5544 12.632-11.4777 36.2667-11.731 40.0475-1.9506 5.8522-4.854 3.3546-5.9895.1536-2.9404-8.376-7.0213-24.4314-10.7608-42.336-9.4053-45.0326-15.0884-59.4621-35.3225-89.685l-2.9398-4.391.098 69.055c.0694 48.9143-.3662 75.3297-1.4932 90.5684l-1.5913 21.5134-4.3469-5.8893c-2.3908-3.2392-9.7109-15.3656-16.2668-26.9477-16.6742-29.4582-24.6063-40.962-45.5027-65.9923-17.2923-20.713-35.3864-39.4851-47.6592-49.445l-5.5566-4.5093.6723 4.61c3.4971 23.9802 3.845 56.9661.7616 72.2096l-1.3072 6.4623-6.4426-6.8625c-19.4242-22.6006-23.3153-48.1287-39.8414-67.879-19.815-23.4395-35.027-34.696-68.2-50.4665-4.6122-2.1927-8.5611-3.7767-8.776-3.52-.2146.2565.6491 6.5476 1.9196 13.98 2.6164 15.3072 2.945 40.4953.9558 73.2924-1.9429 32.0322-4.9846 53.4723-10.8424 76.4254l-2.8663 11.2312-6.7897-6.2441c-13.2449-14.2482-14.0688-18.902-22.613-33.5199-8.3169-41.279-28.3673-74.7955-52.5984-87.9237-7.3947-4.0062-23.3944-10.2286-24.1006-9.3728-.383.4642 7.867 42.9598 9.1953 47.3661.338 1.1208.7987 5.0949 1.0239 8.831.2252 3.7362.9415 12.6011 1.5917 19.6998.6503 7.0987 1.1912 24.417 1.202 38.485l.0198 25.5782-3.0408-4.5197c-18.7148-27.8184-43.2376-44.5831-65.1641-44.5488-7.265.0103-14.919 3.6644-17.4852 8.3452-2.1586 3.9374-3.7953 13.5463-4.5866 26.9287-1.0127 17.1262-9.0997 86.1039-10.3158 87.9894-.1273.1974-5.2768-3.3177-11.4434-7.8111-8.0012-5.8307-11.4369-7.6841-11.9977-6.4727-.6584 1.4218-2.5879 79.3029-27.9358 104.3525l-11.6047 11.4682-.059-8.0608c-.0323-4.4334.762-27.0542 1.765-50.2686 3.102-71.7861.6518-135.5754-6.2135-161.7656-2.9568-11.2797-8.49-27.4711-13.242-38.749-2.1971-5.215-3.576-9.4818-3.064-9.4818.5122 0 8.5753 3.6873 17.9182 8.194 9.3429 4.5067 20.8768 9.6265 25.631 11.3773l8.644 3.1834.7327-17.8307c1.361-33.1088-1.5017-48.265-16.8055-88.9835-2.9128-7.7501-5.0345-14.404-4.7147-14.786 1.1657-1.3932 25.4519 9.4844 38.7386 17.3509 7.5026 4.442 18.1309 12.0688 23.6184 16.9487 6.3553 5.6515 10.1538 8.2506 10.463 7.1595.267-.9422 1.0204-5.3409 1.6742-9.7746 2.5376-17.2095.6848-38.0436-4.4394-49.9192-5.9519-13.7934-17.9818-33.2634-29.191-47.244l-12.0362-15.0124s22.609-20.0497 53.6757 1.9514c0 .239 8.5683 8.7033 19.0405 18.8094 10.4723 10.1061 23.6444 23.3614 29.2713 29.4561l10.2309 11.0813.7289-10.4747c.401-5.761 1.083-18.471 1.5154-28.2443.4326-9.7734.9438-18.0878 1.136-18.4762.1923-.3886-.1366-7.0557-.7309-14.816-1.7522-22.8806-8.1203-40.7138-22.329-62.5299l-7.4417-11.426 25.1436.9517c43.1126 1.6318 55.4931 5.2628 77.003 22.5839 9.0957 7.3244 23.0772 17.6577 23.8918 17.6577.3016 0 .5511-2.5983.5545-5.774.0103-9.8589 5.1502-42.1735 7.4708-54.945 3.3306-18.3313 2.648-23.9456 15.1761-41.0394 9.1082-12.4275 15.6717-11.5598 20.0794-12.9284l6.5778-1.4358 1.072 24.7561c.9875 35.2815 6.1567 72.75 11.5852 83.9723 3.8952 8.0526 15.5227 20.0682 21.0151 21.7163.3126.0937 4.1491 2.222 8.5256 4.7291 10.241 5.867 18.826 12.1353 35.2904 25.7679 7.3127 6.0549 13.4112 10.828 13.5524 10.6067.141-.221 1.6051-9.3873 3.2535-20.3691 1.6485-10.982 3.283-19.3555 6.0693-29.2102 6.2083-17.1926 10.1333-21.7541 20.4257-39.991 4.162-7.4508 5.168-9.4046 16.0884-25.065l9.1926-9.6574.6053 4.8837c.3328 2.686.9126 8.552 1.2886 13.0353 1.073 12.7996 5.2907 51.5786 5.6634 52.0712.6765.8944 38.7678-28.7385 47.6517-37.0704 11.1626-10.4688 27.4094-30.3555 31.9548-39.1137 1.8413-3.548 3.6571-6.4521 4.0349-6.4534.9165-.0023 5.1517 17.6462 6.6827 27.849.6729 4.4835 1.5452 20.2504 1.9387 35.0376.3935 14.7872 1.1454 27.2035 1.671 27.5918 1.5654 1.1562 13.5643-10.6703 23.1165-22.7842 10.6217-13.4703 17.1451-25.1367 24.4607-43.745 5.1431-13.0826 13.627-41.9349 13.627-46.3437 0-3.4997 1.9505-2.2766 2.6681 1.6732 8.2775 45.5642 9.9772 66.9238 9.9784 125.401 1.1576 30.663-1.118 41.8499-8.148 64.534-4.4819 11.1706-8.8978 22.3792-9.8131 24.9082l-1.6641 4.5982 10.594-.9488c33.9503-3.0402 55.593-14.0148 74.1614-37.6053 20.8922-25.6012 13.4623-47.6535 27.6502-68.6606l5.4061-7.939.753 6.7858c.4142 3.7323.7978 29.8654.8525 58.0736.0548 28.2083.4833 51.2846.9521 51.2807.469-.003 14.129-3.0607 30.3557-6.793 16.2266-3.7325 29.6962-6.7862 29.9323-6.7862.2362 0-.5914 1.987-1.839 4.4155-4.7759 9.296-10.3668 23.981-14.3541 37.7014-4.273 14.7038-9.073 37.8945-8.0872 39.0728.3067.3665 4.5434 2.6206 9.4148 5.009 30.2917 14.8519 53.6615 47.5314 63.2043 88.3828 2.7452 11.7517 11.0192 55.6498 11.0132 58.4306-.001.7416-1.8287-2.2705-4.0602-6.6936-11.7559-23.3012-26.8464-40.196-40.1584-44.9602-2.6859-.9612-2.7178-.8696-1.9627 5.6334 7.892 67.9673 8.659 82.1846 8.1628 151.3024-.34 47.3773-.7777 60.9576-2.2063 68.467-.9801 5.152-1.9228 9.5352-2.0946 9.7407-.172.2053-1.813-2.787-3.647-6.6501z"/>
  <ellipse cx="418.0103" cy="605.7883" rx="15.1532" ry="13.7371"/>
  <ellipse cx="565.3632" cy="603.2852" rx="15.1532" ry="13.7371"/>
</svg>
